<svg xmlns="http://www.w3.org/2000/svg" width="128" height="128" viewBox="0 0 128 128">
  <rect x="32" y="16" width="64" height="96" fill="#4a5568" rx="2"/>
  <rect x="36" y="20" width="12" height="10" fill="#68d391"/>
  <rect x="52" y="20" width="12" height="10" fill="#68d391"/>
  <rect x="68" y="20" width="12" height="10" fill="#faf089"/>
  <rect x="36" y="34" width="12" height="10" fill="#faf089"/>
  <rect x="52" y="34" width="12" height="10" fill="#68d391"/>
  <rect x="68" y="34" width="12" height="10" fill="#68d391"/>
  <rect x="36" y="48" width="12" height="10" fill="#68d391"/>
  <rect x="52" y="48" width="12" height="10" fill="#faf089"/>
  <rect x="68" y="48" width="12" height="10" fill="#68d391"/>
  <rect x="36" y="62" width="12" height="10" fill="#faf089"/>
  <rect x="52" y="62" width="12" height="10" fill="#68d391"/>
  <rect x="68" y="62" width="12" height="10" fill="#faf089"/>
  <rect x="36" y="76" width="12" height="10" fill="#68d391"/>
  <rect x="52" y="76" width="12" height="10" fill="#68d391"/>
  <rect x="68" y="76" width="12" height="10" fill="#68d391"/>
  <rect x="84" y="20" width="8" height="86" fill="#2d3748"/>
  <rect x="86" y="70" width="4" height="8" fill="#a0aec0"/>
  <rect x="32" y="90" width="64" height="22" fill="#ecc94b"/>
  <rect x="54" y="96" width="20" height="16" fill="#744210"/>
</svg>
